<svg width="287" height="84" viewBox="0 0 287 84" fill="0px" xmlns="http://www.w3.org/2000/svg">
<path d="M5.408 84.0006V55.8262C8.80994 61.8448 15.2647 65.6829 23.1153 65.6829C36.5482 65.6829 46.3177 55.739 46.3177 41.9569C46.3177 28.2622 36.5483 18.3184 23.0279 18.3184C9.59494 18.3184 0 28.0879 0 41.5208V84.0006H5.408ZM40.9095 41.9569C40.9969 52.8603 33.408 60.7109 23.1153 60.7109C12.7351 60.7109 5.23368 52.8603 5.23368 41.9569C5.23368 31.1407 12.7351 23.2903 23.1153 23.2903C33.3209 23.2903 40.8223 31.1407 40.9095 41.9569Z" fill="#2B2A29"/>
<path d="M77.72 18.3184C64.1125 18.3184 54.5176 28.175 54.5176 41.9569C54.5176 56.0005 64.0253 65.6829 77.72 65.6829C85.8321 65.6829 92.3743 61.8448 95.8634 55.5644V63.9383H101.01V41.9569C101.01 28.175 91.3276 18.3184 77.72 18.3184ZM77.72 23.2903C88.1002 23.2903 95.6017 31.1407 95.6017 41.9569C95.6017 52.8603 88.1002 60.7109 77.72 60.7109C67.3399 60.7109 59.9256 52.8603 59.9256 41.9569C59.9256 31.1407 67.3399 23.2903 77.72 23.2903Z" fill="#2B2A29"/>
<path d="M113.047 63.9379H118.455V0H113.047V63.9379Z" fill="#2B2A29"/>
<path d="M179.602 24.5984H187.016V53.7324C187.016 60.8849 191.378 65.6825 197.833 65.6825C200.275 65.6825 202.979 65.2464 204.811 64.6358V59.8382C203.066 60.3617 200.798 60.7106 199.054 60.7106C195.041 60.6234 192.425 57.6576 192.425 53.2963V24.5984H204.026V20.0626H192.425V10.4674H187.016V20.0626H179.602V24.5984Z" fill="#2B2A29"/>
<path d="M210.044 24.5984H217.458V53.7324C217.458 60.8849 221.82 65.6825 228.274 65.6825C230.717 65.6825 233.421 65.2464 235.253 64.6358V59.8382C233.508 60.3617 231.24 60.7106 229.496 60.7106C225.483 60.6234 222.866 57.6576 222.866 53.2963V24.5984H234.468V20.0626H222.866V10.4674H217.458V20.0626H210.044V24.5984Z" fill="#2B2A29"/>
<path d="M263.34 18.3184C250.169 18.3184 240.661 27.9133 240.661 41.2591C240.661 55.3901 250.169 65.6829 263.166 65.6829C271.889 65.6829 280.35 61.2342 283.49 55.0412V52.5988H278.867C276.512 57.309 269.969 60.7109 263.34 60.7109C255.054 60.7109 248.686 55.2155 246.68 46.9288H285.758C286.106 45.3589 286.281 43.0908 286.281 41.3465C286.281 27.9133 276.599 18.3184 263.34 18.3184ZM246.069 41.2591C246.069 30.8792 253.135 23.2903 263.079 23.2903C273.633 23.2903 281.309 31.4896 280.698 42.3058H246.069V41.2591Z" fill="#2B2A29"/>
<path fill-rule="evenodd" clip-rule="evenodd" d="M150.025 17.1879C127.508 19.7556 120.382 47.8538 137.779 60.9772C140.896 63.3282 152.542 69.0017 156.211 64.0713C159.272 59.9575 154.584 58.0055 154.549 55.2782C154.456 48.0115 166.681 54.9469 173.445 49.1218C175.722 47.1605 177.072 44.2958 176.866 39.9756C176.247 27.0005 164.251 15.5656 150.025 17.1879Z" fill="black"/>
<path fill-rule="evenodd" clip-rule="evenodd" d="M138.592 21.3871C119.247 35.1008 128.683 64.9466 150.755 66.0022C155.693 66.2406 165.866 64.9417 166.617 59.4782C167.315 54.3982 155.943 56.8347 154.597 54.4626C154.355 54.0348 145.862 56.3944 145.772 56.0223C144.534 50.8859 171.602 45.8699 174.507 38.0716C175.557 35.255 175.358 32.0951 173.094 28.4094C166.296 17.3408 150.273 13.1068 138.592 21.3871Z" fill="black"/>
<path fill-rule="evenodd" clip-rule="evenodd" d="M144.415 22.3175C138.165 24.7118 141.885 33.0445 147.474 31.0361C153.041 29.0354 150.104 20.1385 144.415 22.3175Z" fill="#8AC43E"/>
<path d="M158.896 31.4777C161.649 31.4777 163.88 29.2465 163.88 26.4943C163.88 23.742 161.649 21.5109 158.896 21.5109C156.144 21.5109 153.913 23.742 153.913 26.4943C153.913 29.2465 156.144 31.4777 158.896 31.4777Z" fill="#FBAE45"/>
<path d="M167.006 42.3093C169.759 42.3093 171.99 40.0782 171.99 37.3259C171.99 34.5737 169.759 32.3425 167.006 32.3425C164.254 32.3425 162.023 34.5737 162.023 37.3259C162.023 40.0782 164.254 42.3093 167.006 42.3093Z" fill="#B62931"/>
<path d="M137.538 42.4746C140.29 42.4746 142.521 40.2435 142.521 37.4912C142.521 34.739 140.29 32.5078 137.538 32.5078C134.785 32.5078 132.554 34.739 132.554 37.4912C132.554 40.2435 134.785 42.4746 137.538 42.4746Z" fill="#6C67F2"/>
</svg>
